<svg version="1.1" id="Layer_1" xmlns="http://www.w3.org/2000/svg" xmlns:xlink="http://www.w3.org/1999/xlink" x="0px" y="0px"
	 width="100%" viewBox="0 0 1040 296" enable-background="new 0 0 1040 296" xml:space="preserve">
<path fill="#FDFBF7" opacity="1.000000" stroke="none" 
	d="
M766.000000,297.000000 
	C510.666718,297.000000 255.833420,297.000000 1.000103,297.000000 
	C1.000068,198.333389 1.000068,99.666794 1.000034,1.000142 
	C347.666534,1.000095 694.333069,1.000095 1040.999756,1.000047 
	C1040.999756,99.666527 1040.999756,198.333054 1040.999878,296.999786 
	C949.500000,297.000000 858.000000,297.000000 766.000000,297.000000 
M383.017334,89.520844 
	C382.336426,89.317390 381.655487,89.113937 380.056519,88.723297 
	C366.378235,88.794197 352.699921,88.865097 338.384613,88.693336 
	C336.581268,88.773460 334.777924,88.853584 332.167572,88.723495 
	C330.786865,88.790703 329.406189,88.857903 327.280548,88.678482 
	C323.845367,88.763840 320.410187,88.849197 316.089966,88.728020 
	C313.064667,88.801308 310.039398,88.874603 306.421387,88.701523 
	C302.825348,88.113869 303.824768,90.717705 303.823914,92.522896 
	C303.806274,129.682159 303.806702,166.841415 303.812683,204.000687 
	C303.812836,204.959305 303.916504,205.917892 303.971405,206.868103 
	C304.704926,207.096130 305.159790,207.360748 305.615021,207.361420 
	C331.109802,207.398865 356.604675,207.424881 382.099335,207.372314 
	C382.751617,207.370972 383.402069,206.483444 384.306549,205.358368 
	C384.227173,204.902878 384.147797,204.447372 384.319153,203.090027 
	C384.254700,198.402237 384.190216,193.714462 384.208038,188.350204 
	C383.803986,188.227493 383.399902,188.104782 382.081482,187.762238 
	C363.834290,187.795685 345.587067,187.829132 327.021606,186.990311 
	C327.021606,177.388611 327.021606,167.786926 327.021606,157.717575 
	C344.260162,157.717575 361.150421,157.717575 378.577942,157.717575 
	C378.577942,151.285248 378.612305,145.315796 378.509766,139.348709 
	C378.501953,138.893738 377.524963,138.455399 376.076233,137.830429 
	C360.383759,137.888840 344.691254,137.947250 328.493713,137.776657 
	C327.943695,137.711014 327.393677,137.645370 326.804108,136.570374 
	C326.853973,127.012955 326.903809,117.455528 327.770905,107.840202 
	C328.853668,107.759544 329.936401,107.678886 331.798553,107.779579 
	C332.858582,107.720123 333.918640,107.660667 335.896271,107.815826 
	C350.603455,107.743370 365.310669,107.670914 380.852722,107.777115 
	C381.573212,106.822052 382.883728,105.885788 382.914856,104.908752 
	C383.072784,99.951271 382.898804,94.983200 383.017334,89.520844 
M590.789001,206.880157 
	C597.304932,207.088959 603.820312,207.327362 610.337891,207.434952 
	C610.739807,207.441574 611.158752,206.416962 611.776367,205.107315 
	C611.714294,204.058136 611.652161,203.008957 611.812683,201.052231 
	C611.841187,197.888458 612.409973,194.615768 611.798279,191.581039 
	C609.847351,181.901703 616.124268,176.834061 622.457336,171.174988 
	C629.881042,182.263306 637.107483,193.158295 644.485413,203.949753 
	C645.414490,205.308578 647.108765,206.994125 648.502686,207.045044 
	C656.565308,207.339508 664.644104,207.188797 673.356384,207.188797 
	C661.322388,190.105667 649.628967,173.506073 637.948425,156.924744 
	C638.994141,155.799728 639.685059,155.084869 640.344727,154.342270 
	C649.607056,143.915543 658.865173,133.485046 668.660278,122.849243 
	C669.112488,122.246429 669.564697,121.643608 670.661621,120.743942 
	C670.434631,120.230965 670.207642,119.717979 669.062866,119.016068 
	C662.573914,119.009132 656.083374,118.925209 649.597046,119.052696 
	C648.090149,119.082314 646.597351,119.832062 644.464111,120.424713 
	C633.832031,132.254364 623.200012,144.084015 611.478455,157.125900 
	C611.478455,145.110733 611.478455,134.547363 611.690796,123.078194 
	C611.616394,118.730583 611.542053,114.382965 611.721313,109.194763 
	C611.637268,107.450783 611.553162,105.706795 611.685364,103.090790 
	C611.613220,100.399612 611.541138,97.708443 611.720276,94.205765 
	C611.720276,92.455818 611.720276,90.705872 611.720276,88.914787 
	C604.317932,88.914787 597.554321,88.914787 590.618958,88.914787 
	C590.490295,89.773293 590.314209,90.400085 590.314148,91.026909 
	C590.308411,128.353500 590.315491,165.680084 590.338257,203.006668 
	C590.338684,203.657791 590.545349,204.308762 590.420044,205.515472 
	C590.522339,205.688751 590.624634,205.862030 590.789001,206.880157 
M480.587524,205.297592 
	C480.505768,204.488251 480.424011,203.678894 480.666718,201.997177 
	C480.690125,166.174713 480.717163,130.352249 480.720551,94.529778 
	C480.720642,93.382935 480.478088,92.236084 480.573853,90.489861 
	C480.495667,90.291290 480.417450,90.092712 480.227448,89.129509 
	C473.489502,89.129509 466.751556,89.129509 459.749390,89.129509 
	C459.749390,95.900650 459.749420,102.533287 459.749420,109.165924 
	C459.749420,115.818077 459.749390,122.470230 459.749390,130.368088 
	C443.455688,110.391411 411.831482,116.098473 401.275940,135.288040 
	C393.712769,146.802246 392.808350,159.737717 394.557007,172.714279 
	C396.385651,186.284286 402.093079,198.043350 415.589844,205.292847 
	C432.339081,213.082199 447.119110,210.678070 459.805023,196.307007 
	C460.172607,198.142426 460.455109,199.552917 460.507019,201.699738 
	C460.632141,202.451050 460.757233,203.202362 460.604370,204.531708 
	C461.712891,205.482178 462.772430,207.175079 463.938538,207.251999 
	C468.487671,207.552032 473.072601,207.405899 477.639008,207.261154 
	C478.508820,207.233597 479.354919,206.459351 480.587524,205.297592 
M704.233948,205.510788 
	C704.174744,205.338959 704.115479,205.167114 704.266418,204.262955 
	C704.193542,203.512070 704.120667,202.761185 704.241455,201.219543 
	C704.177490,200.141968 704.113464,199.064392 704.271729,197.074036 
	C704.219666,184.732025 704.167603,172.390015 704.390808,159.377487 
	C705.330017,155.275345 706.269226,151.173218 707.841125,146.850250 
	C714.870544,138.316284 724.813416,140.465027 733.785034,140.353760 
	C733.785034,132.949432 733.785034,126.176414 733.785034,119.189392 
	C720.262939,115.173637 711.639221,121.935699 704.447876,132.492249 
	C703.816345,129.484467 703.340271,127.216736 702.997437,123.992897 
	C702.154053,122.732391 701.371338,120.434097 700.457336,120.380646 
	C694.730835,120.045769 688.975037,120.211418 683.220154,120.211418 
	C683.220154,149.197342 683.220154,177.551193 683.093445,206.400345 
	C684.051636,206.570755 685.009827,206.741180 686.857178,207.200104 
	C691.958191,207.047531 697.059265,206.894943 702.752197,207.213715 
	C703.166077,206.809280 703.579956,206.404831 704.233948,205.510788 
M103.896439,209.743637 
	C104.415924,210.575394 104.935410,211.407166 105.527641,212.728821 
	C105.527641,212.728821 105.938873,213.004868 106.056862,213.676529 
	C110.373886,217.073120 114.690918,220.469727 119.642868,224.238831 
	C123.905693,225.449509 128.159393,227.672684 132.432785,227.711197 
	C167.670090,228.028778 202.911194,227.980972 238.150467,227.855438 
	C239.864319,227.849335 241.571915,226.084030 243.938431,224.565964 
	C243.956604,212.710938 243.974777,200.855896 244.133438,188.394821 
	C243.743515,187.930634 243.353592,187.466461 242.757568,186.294922 
	C240.401474,185.767319 238.046341,184.784714 235.689133,184.779678 
	C193.561325,184.689499 151.433273,184.715652 109.305267,184.727844 
	C107.475105,184.728378 105.427864,184.339874 103.872231,185.022507 
	C102.105354,185.797836 99.625725,187.444244 99.455864,188.939224 
	C98.645477,196.071457 98.964523,203.177994 103.955994,209.037720 
	C103.955994,209.037720 103.843536,209.112244 103.896439,209.743637 
M901.957153,187.800018 
	C901.957153,187.800018 901.715271,187.678177 900.978577,187.803909 
	C895.016602,191.932007 888.313477,192.345688 881.482422,191.342606 
	C871.015930,189.805695 863.206787,178.980469 865.595337,169.148972 
	C886.083618,169.148972 906.667480,169.148972 928.160828,169.148972 
	C927.708984,163.148392 927.586670,157.540939 926.812317,152.025040 
	C924.876526,138.236252 917.678040,128.116150 904.647217,121.657997 
	C904.468140,121.678627 904.289124,121.699257 903.580994,121.259430 
	C900.720703,120.493553 897.860474,119.727669 894.239136,118.791328 
	C893.201111,118.770218 892.163025,118.749100 890.678101,117.984848 
	C886.422180,118.233009 882.166321,118.481171 877.404907,118.622917 
	C877.271362,118.731689 877.137817,118.840469 876.200806,118.859627 
	C872.079712,120.464188 867.958557,122.068756 863.157288,123.848877 
	C848.180176,133.614105 843.010254,147.967422 842.851135,165.219131 
	C842.647461,187.294922 857.252930,209.080383 884.755737,209.581223 
	C897.919434,209.820938 910.261902,207.644577 919.745728,196.136597 
	C922.039917,191.954712 924.334106,187.772842 927.206177,182.537598 
	C921.162659,182.537598 916.875610,182.792068 912.632324,182.470139 
	C907.835083,182.106201 903.846313,182.845566 901.957153,187.800018 
M818.873901,188.253189 
	C817.778076,185.612625 815.830261,183.001801 815.736816,180.326202 
	C815.370544,169.840942 815.589661,159.335251 815.590942,148.837143 
	C815.591431,145.254547 815.591064,141.671936 815.591064,137.739594 
	C822.555725,137.739594 828.819214,137.739594 835.323486,137.739594 
	C835.323486,131.771637 835.323486,126.190186 835.323486,120.085022 
	C828.661255,120.085022 822.253784,120.085022 815.536560,120.085022 
	C815.536560,112.455040 815.536560,105.343781 815.536560,97.975578 
	C808.276001,97.975578 801.346497,97.975578 793.912354,97.975578 
	C793.912354,105.340958 793.912354,112.570702 793.912354,120.269272 
	C789.504456,120.269272 785.587646,120.269272 781.506592,120.269272 
	C781.506592,126.322083 781.506592,131.885971 781.506592,138.077545 
	C785.834656,138.077545 789.877380,138.077545 794.139221,138.077545 
	C794.139221,154.697723 794.050537,170.689194 794.180786,186.678909 
	C794.236816,193.558136 796.995239,199.211334 803.322327,203.604706 
	C813.482300,209.279724 824.281128,209.538940 835.541992,207.937347 
	C835.541992,201.820068 835.541992,196.257050 835.541992,190.839905 
	C829.942688,190.169373 824.605774,189.530243 818.873901,188.253189 
M102.089668,140.211288 
	C95.127014,155.760147 104.719376,172.609192 121.020927,172.740494 
	C151.830627,172.988632 182.643692,172.847275 213.455276,172.801971 
	C218.677612,172.794296 220.885956,170.667831 220.932953,165.637390 
	C221.026306,155.645416 220.890076,145.651428 220.955688,135.658981 
	C220.986465,130.972992 218.544754,129.004608 214.159637,129.003891 
	C182.848389,128.998734 151.536209,128.888336 120.226608,129.120377 
	C112.981171,129.174088 106.839043,132.299271 102.773926,139.377945 
	C102.773926,139.377945 102.676315,139.862946 102.089668,140.211288 
M506.208008,120.217323 
	C503.937531,120.208656 501.617340,119.924126 499.419678,120.319847 
	C498.469452,120.490952 497.772186,122.066620 496.735138,123.917603 
	C496.803558,139.942734 496.871979,155.967880 496.758484,172.846893 
	C496.873260,175.639740 496.988037,178.432587 496.969910,181.996017 
	C500.362457,205.907135 518.956482,213.327805 538.086670,207.588104 
	C543.709717,205.901016 548.411255,201.142410 553.444275,197.850861 
	C553.669067,200.356903 553.961792,203.619904 554.270569,207.062500 
	C561.367615,207.062500 568.253662,207.062500 575.268555,207.062500 
	C575.268555,178.006851 575.268555,149.254318 575.268555,120.457062 
	C567.879395,120.457062 560.808655,120.457062 553.325073,120.457062 
	C553.325073,123.240494 553.336243,125.705154 553.323181,128.169678 
	C553.244080,143.167191 553.502441,158.176773 552.973267,173.158493 
	C552.509583,186.283905 540.507385,193.628128 528.053955,189.286880 
	C521.099731,186.862656 519.759583,180.828140 518.014465,174.061646 
	C518.014038,157.481918 518.059570,140.901825 517.925354,124.323189 
	C517.914673,123.002968 516.660400,121.692818 515.108948,120.160370 
	C512.415039,120.238091 509.721161,120.315811 506.208008,120.217323 
M241.083481,73.727242 
	C232.758804,73.725632 224.434097,73.709358 216.109451,73.725098 
	C188.139084,73.777977 160.164917,73.583000 132.199844,73.998535 
	C115.178589,74.251450 99.449112,90.001404 99.159836,106.076141 
	C99.017281,113.997437 101.455833,116.559250 109.387695,116.563553 
	C146.349792,116.583595 183.311966,116.603951 220.273972,116.547241 
	C234.191406,116.525887 242.278091,109.050682 244.157730,94.084389 
	C244.175842,88.420250 244.307571,82.752174 244.111557,77.095451 
	C244.074493,76.026436 242.734512,75.002579 241.083481,73.727242 
M766.855469,125.682922 
	C766.855469,123.929886 766.855469,122.176849 766.855469,120.391510 
	C759.372192,120.391510 752.621460,120.391510 745.691772,120.391510 
	C745.691772,149.441910 745.691772,178.243073 745.691772,207.109055 
	C752.864624,207.109055 759.622620,207.109055 766.855408,207.109055 
	C766.855408,180.125732 766.855408,153.383682 766.855469,125.682922 
M753.012695,108.620773 
	C758.145935,108.654297 763.319580,108.361382 765.975037,103.080856 
	C768.234009,98.588844 767.941772,93.555267 765.151978,89.594368 
	C762.433411,85.734650 757.563232,85.501999 753.143250,85.965225 
	C747.667725,86.539070 743.917358,91.620178 743.964478,97.772476 
	C744.006165,103.213936 747.368286,107.380371 753.012695,108.620773 
z"/>
<path fill="#18181C" opacity="1.000000" stroke="none" 
	d="
M243.912201,94.992279 
	C242.278091,109.050682 234.191406,116.525887 220.273972,116.547241 
	C183.311966,116.603951 146.349792,116.583595 109.387695,116.563553 
	C101.455833,116.559250 99.017281,113.997437 99.159836,106.076141 
	C99.449112,90.001404 115.178589,74.251450 132.199844,73.998535 
	C160.164917,73.583000 188.139084,73.777977 216.109451,73.725098 
	C224.434097,73.709358 232.758804,73.725632 241.541260,74.313881 
	C241.995895,80.312363 241.871002,85.728867 242.077484,91.132706 
	C242.127441,92.440681 243.271332,93.706871 243.912201,94.992279 
z"/>
<path fill="#16171B" opacity="1.000000" stroke="none" 
	d="
M480.348694,91.089233 
	C480.478088,92.236084 480.720642,93.382935 480.720551,94.529778 
	C480.717163,130.352249 480.690125,166.174713 480.149841,202.648087 
	C478.187897,203.870438 476.754425,204.894226 475.295563,204.931854 
	C470.092682,205.066040 464.438232,206.457642 460.737579,200.963425 
	C460.455109,199.552917 460.172607,198.142426 459.805023,196.307007 
	C447.119110,210.678070 432.339081,213.082199 415.302338,204.703476 
	C414.465790,203.154175 414.156433,201.798676 413.329376,201.297562 
	C407.298340,197.643265 402.943878,192.537399 400.896576,185.885605 
	C398.883331,179.344482 396.390503,172.588150 396.323120,165.903946 
	C396.241119,157.772659 396.082397,149.221283 400.463623,141.578217 
	C401.531860,139.714661 401.406769,137.167007 401.830353,134.933899 
	C411.831482,116.098473 443.455688,110.391411 459.749390,130.368088 
	C459.749390,122.470230 459.749420,115.818077 459.749420,109.165924 
	C459.749420,102.533287 459.749390,95.900650 459.749390,89.129509 
	C466.751556,89.129509 473.489502,89.129509 480.079041,89.629852 
	C480.070007,90.449875 480.209351,90.769554 480.348694,91.089233 
M448.084747,139.114716 
	C435.940826,133.565765 424.634888,136.936005 419.565277,148.274826 
	C415.187592,158.065994 415.229614,168.404373 419.495972,178.188156 
	C422.476501,185.023254 428.045563,189.498611 435.942749,190.157135 
	C444.299072,190.853958 450.787018,187.745056 455.348877,180.646957 
	C461.581940,170.948456 461.490112,147.526855 448.084747,139.114716 
M461.042206,116.484711 
	C461.042206,120.549408 461.042206,124.614105 461.042206,128.678802 
	C461.267944,128.665268 461.493652,128.651749 461.719391,128.638229 
	C461.719391,116.143333 461.719391,103.648445 461.719391,91.153557 
	C461.493713,91.153404 461.268036,91.153259 461.042358,91.153107 
	C461.042358,99.265465 461.042358,107.377831 461.042206,116.484711 
z"/>
<path fill="#17171B" opacity="1.000000" stroke="none" 
	d="
M105.938873,213.004868 
	C105.938873,213.004868 105.527641,212.728821 105.797394,212.325287 
	C105.325943,210.985245 104.584740,210.048752 103.843536,209.112244 
	C103.843536,209.112244 103.955994,209.037720 103.943146,208.684631 
	C103.333145,204.219254 102.478378,200.122879 102.222519,195.989456 
	C102.027283,192.835205 100.885323,188.812286 106.466187,187.990326 
	C149.062088,187.996307 191.189072,188.010788 233.315964,187.957016 
	C235.212448,187.954605 237.108154,187.333527 239.400146,186.994934 
	C240.851944,186.993591 241.907806,186.997940 242.963669,187.002289 
	C243.353592,187.466461 243.743515,187.930634 243.666473,188.785461 
	C242.804825,190.012543 242.073669,190.846191 242.066757,191.685837 
	C241.983292,201.823013 241.970505,211.961395 242.058426,222.098419 
	C242.067261,223.115067 242.855774,224.124924 243.282410,225.137939 
	C241.571915,226.084030 239.864319,227.849335 238.150467,227.855438 
	C202.911194,227.980972 167.670090,228.028778 132.432785,227.711197 
	C128.159393,227.672684 123.905693,225.449509 119.312897,223.695312 
	C114.634911,219.769470 110.286896,216.387177 105.938873,213.004868 
z"/>
<path fill="#15161A" opacity="1.000000" stroke="none" 
	d="
M327.339874,187.862579 
	C345.587067,187.829132 363.834290,187.795685 382.660706,188.109009 
	C383.535187,188.646072 383.830475,188.836380 384.125763,189.026672 
	C384.190216,193.714462 384.254700,198.402237 383.910309,203.535767 
	C383.312561,203.987595 383.123627,203.993668 382.472534,204.000824 
	C377.214294,204.002289 372.413849,203.877411 367.623352,204.042419 
	C363.748138,204.175919 359.884918,204.658463 355.614075,204.993317 
	C354.138214,204.994873 353.064667,204.989258 351.692261,204.693756 
	C338.437439,204.270035 325.479218,203.948883 312.526886,204.107468 
	C308.191193,204.160553 306.863739,203.055695 306.890167,198.568863 
	C307.083313,165.793991 306.994141,133.017456 306.995972,100.241447 
	C306.996185,96.476929 307.007782,92.712410 307.014099,88.947891 
	C310.039398,88.874603 313.064667,88.801308 316.815247,89.128654 
	C321.035522,89.327896 324.530518,89.126503 328.025482,88.925110 
	C329.406189,88.857903 330.786865,88.790703 332.817169,89.109985 
	C335.318390,89.309654 337.170013,89.122818 339.021637,88.935989 
	C352.699921,88.865097 366.378235,88.794197 380.523071,89.080360 
	C380.992889,89.613121 380.996124,89.788811 380.999176,90.432861 
	C380.671967,96.466965 380.344910,102.032715 380.017883,107.598465 
	C365.310669,107.670914 350.603455,107.743370 335.343872,107.409805 
	C333.534027,107.201935 332.276611,107.400085 331.019165,107.598236 
	C329.936401,107.678886 328.853668,107.759544 327.109985,107.643936 
	C325.637054,108.408539 324.142517,109.353905 324.120300,110.332710 
	C323.931671,118.637589 323.931732,126.950401 324.124695,135.255035 
	C324.145599,136.154129 325.748962,137.016449 326.741638,138.141006 
	C326.908569,138.563934 326.952087,138.741684 327.274231,139.235077 
	C329.342651,139.704224 331.132019,139.985123 332.922302,139.991196 
	C347.622498,140.041031 362.322845,140.039749 377.020264,140.517487 
	C377.017334,145.541306 377.017334,150.101624 377.017334,154.973373 
	C360.591949,154.973373 345.136047,155.171646 329.691437,154.841522 
	C325.548981,154.752975 324.137726,156.488312 324.072296,159.864960 
	C323.910889,168.193893 323.906708,176.531738 324.169800,184.855560 
	C324.202515,185.890259 326.234375,186.861771 327.339874,187.862579 
z"/>
<path fill="#18191D" opacity="1.000000" stroke="none" 
	d="
M590.655823,204.959793 
	C590.545349,204.308762 590.338684,203.657791 590.338257,203.006668 
	C590.315491,165.680084 590.308411,128.353500 590.314148,91.026909 
	C590.314209,90.400085 590.490295,89.773293 590.618958,88.914787 
	C597.554321,88.914787 604.317932,88.914787 611.720276,88.914787 
	C611.720276,90.705872 611.720276,92.455818 611.283081,94.503220 
	C610.374512,93.550011 609.903198,92.299339 609.001038,89.905258 
	C609.001038,112.042694 608.986450,132.934067 609.043640,153.825241 
	C609.046509,154.883759 609.668640,155.940567 610.050903,157.328827 
	C610.788025,157.965637 611.476624,158.271774 612.165283,158.577911 
	C612.293152,158.223679 612.420959,157.869446 612.548828,157.515213 
	C611.698425,157.344086 610.847961,157.172958 609.998291,156.533051 
	C610.003357,146.962128 609.937805,137.858902 610.078003,128.758820 
	C610.102600,127.160400 610.989685,125.575256 611.478394,123.983978 
	C611.478455,134.547363 611.478455,145.110733 611.478455,157.125900 
	C623.200012,144.084015 633.832031,132.254364 644.999084,120.650452 
	C647.554504,121.249687 649.560852,121.796478 651.598206,121.963303 
	C657.099854,122.413803 662.614685,122.702545 668.124329,123.055450 
	C658.865173,133.485046 649.607056,143.915543 640.344727,154.342270 
	C639.685059,155.084869 638.994141,155.799728 637.948425,156.924744 
	C649.628967,173.506073 661.322388,190.105667 673.356384,207.188797 
	C664.644104,207.188797 656.565308,207.339508 648.502686,207.045044 
	C647.108765,206.994125 645.414490,205.308578 644.485413,203.949753 
	C637.107483,193.158295 629.881042,182.263306 622.457336,171.174988 
	C616.124268,176.834061 609.847351,181.901703 611.798279,191.581039 
	C612.409973,194.615768 611.841187,197.888458 611.338318,201.539154 
	C609.370728,205.497711 606.334412,205.060425 603.410889,205.018524 
	C599.159790,204.957550 594.907593,204.975494 590.655823,204.959793 
z"/>
<path fill="#17181C" opacity="1.000000" stroke="none" 
	d="
M496.940369,171.993011 
	C496.871979,155.967880 496.803558,139.942734 497.305420,123.465622 
	C499.673615,123.008331 501.558014,123.334396 503.242371,122.894424 
	C504.627289,122.532677 505.774628,121.261581 507.027283,120.393524 
	C509.721161,120.315811 512.415039,120.238091 515.566040,120.682678 
	C516.142273,121.858154 516.369507,122.512077 516.364929,123.164368 
	C516.255249,138.787827 516.062927,154.411163 516.075745,170.034363 
	C516.077087,171.686890 517.256897,173.338455 517.889954,174.990463 
	C519.759583,180.828140 521.099731,186.862656 528.053955,189.286880 
	C540.507385,193.628128 552.509583,186.283905 552.973267,173.158493 
	C553.502441,158.176773 553.244080,143.167191 553.323181,128.169678 
	C553.336243,125.705154 553.325073,123.240494 553.325073,120.457062 
	C560.808655,120.457062 567.879395,120.457062 575.268555,120.457062 
	C575.268555,149.254318 575.268555,178.006851 575.268555,207.062500 
	C568.253662,207.062500 561.367615,207.062500 554.270569,207.062500 
	C553.961792,203.619904 553.669067,200.356903 553.444275,197.850861 
	C548.411255,201.142410 543.709717,205.901016 538.086670,207.588104 
	C518.956482,213.327805 500.362457,205.907135 497.451996,181.432983 
	C498.988464,177.755875 500.766296,174.560791 496.940369,171.993011 
z"/>
<path fill="#16171B" opacity="1.000000" stroke="none" 
	d="
M102.676315,139.862946 
	C102.676315,139.862946 102.773926,139.377945 103.297012,139.185333 
	C105.435448,137.933746 106.936890,136.599060 108.690430,135.874496 
	C112.097023,134.466888 115.570320,132.995514 119.160339,132.334305 
	C121.651413,131.875488 124.389900,133.001938 127.007416,132.944534 
	C136.788849,132.730026 146.566086,132.052200 156.344696,132.056274 
	C166.534348,132.060516 176.721970,132.796829 186.914062,132.922058 
	C191.693314,132.980804 196.476959,132.222260 201.265930,132.079437 
	C205.838684,131.943054 210.434845,131.941895 214.989883,132.287613 
	C216.235413,132.382156 218.392105,133.931137 218.398422,134.824890 
	C218.466431,144.453308 218.181824,154.084061 218.008667,163.714462 
	C217.974335,165.623291 218.003708,167.533279 218.003708,170.019470 
	C209.075607,170.019470 200.884613,170.129013 192.698578,169.974670 
	C188.409012,169.893799 184.123886,169.023621 179.844208,169.079620 
	C169.151688,169.219543 158.465240,169.849670 147.772873,169.968750 
	C138.926651,170.067261 130.075729,169.614838 121.226364,169.589920 
	C109.167717,169.555954 103.105957,163.646500 102.985023,151.622009 
	C102.945602,147.701691 102.782730,143.782593 102.676315,139.862946 
z"/>
<path fill="#15161A" opacity="1.000000" stroke="none" 
	d="
M904.110168,121.719879 
	C904.289124,121.699257 904.468140,121.678627 904.862549,122.206200 
	C906.118225,124.013123 906.915039,125.941444 908.238098,126.422554 
	C917.242065,129.696869 919.503723,138.481522 922.888977,145.610428 
	C925.347351,150.787430 924.499756,157.580521 924.812012,163.669174 
	C924.848999,164.390594 922.942688,165.807251 921.864563,165.884201 
	C917.807739,166.173721 913.717896,165.952286 909.645935,166.088928 
	C903.113403,166.308151 896.587891,166.788269 890.054626,166.922531 
	C882.320435,167.081497 874.576111,166.853821 866.849060,167.141052 
	C865.547729,167.189438 863.451538,168.802505 863.181702,170.016815 
	C861.075378,179.496063 870.794250,193.216187 880.395630,193.846008 
	C885.952087,194.210480 891.667297,193.546387 897.168335,192.554047 
	C898.920166,192.237991 900.212646,189.375488 901.715271,187.678192 
	C901.715271,187.678177 901.957153,187.800018 902.222778,187.839050 
	C907.415039,183.743561 913.250244,183.717331 919.242249,183.953751 
	C923.273132,184.112778 923.714539,185.442474 921.859680,188.810013 
	C920.565613,191.159317 920.020142,193.920929 919.140259,196.498383 
	C910.261902,207.644577 897.919434,209.820938 884.755737,209.581223 
	C857.252930,209.080383 842.647461,187.294922 842.851135,165.219131 
	C843.010254,147.967422 848.180176,133.614105 863.688843,124.053024 
	C868.662781,122.923943 873.897339,123.498672 877.004333,118.949242 
	C877.137817,118.840469 877.271362,118.731689 877.920654,119.015472 
	C882.665955,119.181351 886.895447,118.954674 891.125000,118.727997 
	C892.163025,118.749100 893.201111,118.770218 894.677917,119.234039 
	C897.720398,122.092583 900.379150,124.266327 904.110168,121.719879 
M907.278625,151.749451 
	C908.426331,148.161118 907.453674,145.518509 903.208740,143.841812 
	C902.559692,143.093643 901.916748,142.340057 901.260681,141.598114 
	C895.594116,135.190125 888.217102,134.116577 880.438354,135.599014 
	C872.337280,137.142899 868.242676,143.132355 866.110718,150.592224 
	C865.811279,151.639984 866.684448,153.022858 867.061035,155.049362 
	C868.166992,155.698532 869.265625,156.896820 870.380005,156.911591 
	C881.087524,157.053711 891.799377,157.083893 902.504639,156.871689 
	C903.683411,156.848312 904.828186,155.108749 906.362610,153.757080 
	C906.455200,153.227646 906.547791,152.698212 907.278625,151.749451 
z"/>
<path fill="#16171B" opacity="1.000000" stroke="none" 
	d="
M819.268799,188.891129 
	C824.605774,189.530243 829.942688,190.169373 835.541992,190.839905 
	C835.541992,196.257050 835.541992,201.820068 835.541992,207.937347 
	C824.281128,209.538940 813.482300,209.279724 803.157654,202.929214 
	C801.320557,199.671463 798.953857,197.289871 798.136108,194.460571 
	C796.865356,190.064240 796.172058,185.373215 796.076355,180.789536 
	C795.812134,168.135483 795.989380,155.472336 795.982178,142.812775 
	C795.978271,136.041275 795.969055,136.041275 789.452454,136.018448 
	C782.982361,135.995773 782.982300,135.995773 782.981384,129.506378 
	C782.981262,128.673508 783.061218,127.831757 782.968628,127.009369 
	C782.629944,124.000458 783.885742,123.026932 786.934326,122.905792 
	C795.889648,122.549919 795.984863,122.299110 795.985352,113.365456 
	C795.985352,113.032310 795.985352,112.699158 795.985352,112.366013 
	C795.985352,99.396217 795.985352,99.396294 809.079712,99.982826 
	C809.245972,99.990265 809.414307,100.002197 809.579102,99.986107 
	C812.210266,99.729301 813.114258,101.012505 813.044556,103.531509 
	C812.933899,107.526146 813.012756,111.526176 813.020691,115.523918 
	C813.033447,121.963882 814.006775,122.921593 820.589844,122.982895 
	C821.755798,122.993752 822.921875,122.984436 824.087891,122.984367 
	C833.711121,122.983780 833.621338,122.978638 833.073853,132.538345 
	C832.927185,135.097961 832.082031,136.124634 829.514526,136.045090 
	C825.687073,135.926514 821.844971,136.175049 818.024475,135.974594 
	C814.576233,135.793671 813.049561,137.353928 813.043823,140.607208 
	C813.019714,154.266052 812.866028,167.928558 813.153564,181.581421 
	C813.227234,185.078445 813.927429,189.239151 819.268799,188.891129 
z"/>
<path fill="#141519" opacity="1.000000" stroke="none" 
	d="
M702.864136,124.948997 
	C703.340271,127.216736 703.816345,129.484467 704.447876,132.492249 
	C711.639221,121.935699 720.262939,115.173637 733.785034,119.189392 
	C733.785034,126.176414 733.785034,132.949432 733.785034,140.353760 
	C724.813416,140.465027 714.870544,138.316284 707.148315,146.993881 
	C703.684692,151.080170 701.795227,155.182571 704.115601,160.048004 
	C704.167603,172.390015 704.219666,184.732025 703.888428,197.736053 
	C703.685974,199.602158 703.866882,200.806229 704.047729,202.010300 
	C704.120667,202.761185 704.193542,203.512070 703.689331,204.628113 
	C697.345276,204.993271 691.578186,204.993271 686.000000,204.993271 
	C686.000000,192.263031 686.000183,180.138016 685.999939,168.013016 
	C685.999634,154.545898 685.940308,141.078171 686.080261,127.612511 
	C686.095947,126.096954 687.287659,123.269325 687.848511,123.290733 
	C692.873962,123.482544 698.247864,121.218742 702.864136,124.948997 
z"/>
<path fill="#18191D" opacity="1.000000" stroke="none" 
	d="
M766.855469,126.162277 
	C766.855408,153.383682 766.855408,180.125732 766.855408,207.109055 
	C759.622620,207.109055 752.864624,207.109055 745.691772,207.109055 
	C745.691772,178.243073 745.691772,149.441910 745.691772,120.391510 
	C752.621460,120.391510 759.372192,120.391510 766.855469,120.391510 
	C766.855469,122.176849 766.855469,123.929886 766.855469,126.162277 
z"/>
<path fill="#212224" opacity="1.000000" stroke="none" 
	d="
M102.382988,140.037109 
	C102.782730,143.782593 102.945602,147.701691 102.985023,151.622009 
	C103.105957,163.646500 109.167717,169.555954 121.226364,169.589920 
	C130.075729,169.614838 138.926651,170.067261 147.772873,169.968750 
	C158.465240,169.849670 169.151688,169.219543 179.844208,169.079620 
	C184.123886,169.023621 188.409012,169.893799 192.698578,169.974670 
	C200.884613,170.129013 209.075607,170.019470 218.003708,170.019470 
	C218.003708,167.533279 217.974335,165.623291 218.008667,163.714462 
	C218.181824,154.084061 218.466431,144.453308 218.398422,134.824890 
	C218.392105,133.931137 216.235413,132.382156 214.989883,132.287613 
	C210.434845,131.941895 205.838684,131.943054 201.265930,132.079437 
	C196.476959,132.222260 191.693314,132.980804 186.914062,132.922058 
	C176.721970,132.796829 166.534348,132.060516 156.344696,132.056274 
	C146.566086,132.052200 136.788849,132.730026 127.007416,132.944534 
	C124.389900,133.001938 121.651413,131.875488 119.160339,132.334305 
	C115.570320,132.995514 112.097023,134.466888 108.690430,135.874496 
	C106.936890,136.599060 105.435448,137.933746 103.460541,138.999741 
	C106.839043,132.299271 112.981171,129.174088 120.226608,129.120377 
	C151.536209,128.888336 182.848389,128.998734 214.159637,129.003891 
	C218.544754,129.004608 220.986465,130.972992 220.955688,135.658981 
	C220.890076,145.651428 221.026306,155.645416 220.932953,165.637390 
	C220.885956,170.667831 218.677612,172.794296 213.455276,172.801971 
	C182.643692,172.847275 151.830627,172.988632 121.020927,172.740494 
	C104.719376,172.609192 95.127014,155.760147 102.382988,140.037109 
z"/>
<path fill="#1F2021" opacity="1.000000" stroke="none" 
	d="
M819.071350,188.572159 
	C813.927429,189.239151 813.227234,185.078445 813.153564,181.581421 
	C812.866028,167.928558 813.019714,154.266052 813.043823,140.607208 
	C813.049561,137.353928 814.576233,135.793671 818.024475,135.974594 
	C821.844971,136.175049 825.687073,135.926514 829.514526,136.045090 
	C832.082031,136.124634 832.927185,135.097961 833.073853,132.538345 
	C833.621338,122.978638 833.711121,122.983780 824.087891,122.984367 
	C822.921875,122.984436 821.755798,122.993752 820.589844,122.982895 
	C814.006775,122.921593 813.033447,121.963882 813.020691,115.523918 
	C813.012756,111.526176 812.933899,107.526146 813.044556,103.531509 
	C813.114258,101.012505 812.210266,99.729301 809.579102,99.986107 
	C809.414307,100.002197 809.245972,99.990265 809.079712,99.982826 
	C795.985352,99.396294 795.985352,99.396217 795.985352,112.366013 
	C795.985352,112.699158 795.985352,113.032310 795.985352,113.365456 
	C795.984863,122.299110 795.889648,122.549919 786.934326,122.905792 
	C783.885742,123.026932 782.629944,124.000458 782.968628,127.009369 
	C783.061218,127.831757 782.981262,128.673508 782.981384,129.506378 
	C782.982300,135.995773 782.982361,135.995773 789.452454,136.018448 
	C795.969055,136.041275 795.978271,136.041275 795.982178,142.812775 
	C795.989380,155.472336 795.812134,168.135483 796.076355,180.789536 
	C796.172058,185.373215 796.865356,190.064240 798.136108,194.460571 
	C798.953857,197.289871 801.320557,199.671463 802.998779,202.620270 
	C796.995239,199.211334 794.236816,193.558136 794.180786,186.678909 
	C794.050537,170.689194 794.139221,154.697723 794.139221,138.077545 
	C789.877380,138.077545 785.834656,138.077545 781.506592,138.077545 
	C781.506592,131.885971 781.506592,126.322083 781.506592,120.269272 
	C785.587646,120.269272 789.504456,120.269272 793.912354,120.269272 
	C793.912354,112.570702 793.912354,105.340958 793.912354,97.975578 
	C801.346497,97.975578 808.276001,97.975578 815.536560,97.975578 
	C815.536560,105.343781 815.536560,112.455040 815.536560,120.085022 
	C822.253784,120.085022 828.661255,120.085022 835.323486,120.085022 
	C835.323486,126.190186 835.323486,131.771637 835.323486,137.739594 
	C828.819214,137.739594 822.555725,137.739594 815.591064,137.739594 
	C815.591064,141.671936 815.591431,145.254547 815.590942,148.837143 
	C815.589661,159.335251 815.370544,169.840942 815.736816,180.326202 
	C815.830261,183.001801 817.778076,185.612625 819.071350,188.572159 
z"/>
<path fill="#1E1F21" opacity="1.000000" stroke="none" 
	d="
M306.717773,88.824707 
	C307.007782,92.712410 306.996185,96.476929 306.995972,100.241447 
	C306.994141,133.017456 307.083313,165.793991 306.890167,198.568863 
	C306.863739,203.055695 308.191193,204.160553 312.526886,204.107468 
	C325.479218,203.948883 338.437439,204.270035 351.224609,204.698792 
	C336.125854,204.993713 321.195801,204.993713 306.265778,204.993713 
	C306.268372,205.332214 306.270935,205.670731 306.273529,206.009232 
	C332.200134,206.009232 358.126770,206.009232 384.053406,206.009216 
	C383.402069,206.483444 382.751617,207.370972 382.099335,207.372314 
	C356.604675,207.424881 331.109802,207.398865 305.615021,207.361420 
	C305.159790,207.360748 304.704926,207.096130 303.971405,206.868103 
	C303.916504,205.917892 303.812836,204.959305 303.812683,204.000687 
	C303.806702,166.841415 303.806274,129.682159 303.823914,92.522896 
	C303.824768,90.717705 302.825348,88.113869 306.717773,88.824707 
z"/>
<path fill="#17171B" opacity="1.000000" stroke="none" 
	d="
M901.346924,187.741058 
	C900.212646,189.375488 898.920166,192.237991 897.168335,192.554047 
	C891.667297,193.546387 885.952087,194.210480 880.395630,193.846008 
	C870.794250,193.216187 861.075378,179.496063 863.181702,170.016815 
	C863.451538,168.802505 865.547729,167.189438 866.849060,167.141052 
	C874.576111,166.853821 882.320435,167.081497 890.054626,166.922531 
	C896.587891,166.788269 903.113403,166.308151 909.645935,166.088928 
	C913.717896,165.952286 917.807739,166.173721 921.864563,165.884201 
	C922.942688,165.807251 924.848999,164.390594 924.812012,163.669174 
	C924.499756,157.580521 925.347351,150.787430 922.888977,145.610428 
	C919.503723,138.481522 917.242065,129.696869 908.238098,126.422554 
	C906.915039,125.941444 906.118225,124.013123 905.038757,122.411209 
	C917.678040,128.116150 924.876526,138.236252 926.812317,152.025040 
	C927.586670,157.540939 927.708984,163.148392 928.160828,169.148972 
	C906.667480,169.148972 886.083618,169.148972 865.595337,169.148972 
	C863.206787,178.980469 871.015930,189.805695 881.482422,191.342606 
	C888.313477,192.345688 895.016602,191.932007 901.346924,187.741058 
z"/>
<path fill="#0F1014" opacity="1.000000" stroke="none" 
	d="
M752.676147,108.386017 
	C747.368286,107.380371 744.006165,103.213936 743.964478,97.772476 
	C743.917358,91.620178 747.667725,86.539070 753.143250,85.965225 
	C757.563232,85.501999 762.433411,85.734650 765.151978,89.594368 
	C767.941772,93.555267 768.234009,98.588844 765.975037,103.080856 
	C763.319580,108.361382 758.145935,108.654297 752.676147,108.386017 
z"/>
<path fill="#222223" opacity="1.000000" stroke="none" 
	d="
M242.860626,186.648621 
	C241.907806,186.997940 240.851944,186.993591 239.398041,186.994629 
	C239.000000,187.000000 238.997009,186.996140 238.701447,186.701859 
	C237.597015,186.274292 236.788208,186.024734 235.979309,186.024384 
	C193.137939,186.005264 150.296570,186.005753 107.455208,186.018188 
	C106.673050,186.018417 105.890930,186.186890 105.108795,186.276855 
	C105.241898,186.493713 105.345207,186.740189 105.519768,186.915863 
	C105.617416,187.014130 105.833267,186.994919 105.996475,187.267944 
	C105.997086,187.507248 105.997253,187.985870 105.997253,187.985870 
	C100.885323,188.812286 102.027283,192.835205 102.222519,195.989456 
	C102.478378,200.122879 103.333145,204.219254 103.906570,208.741318 
	C98.964523,203.177994 98.645477,196.071457 99.455864,188.939224 
	C99.625725,187.444244 102.105354,185.797836 103.872231,185.022507 
	C105.427864,184.339874 107.475105,184.728378 109.305267,184.727844 
	C151.433273,184.715652 193.561325,184.689499 235.689133,184.779678 
	C238.046341,184.784714 240.401474,185.767319 242.860626,186.648621 
z"/>
<path fill="#090A0D" opacity="1.000000" stroke="none" 
	d="
M702.930786,124.470947 
	C698.247864,121.218742 692.873962,123.482544 687.848511,123.290733 
	C687.287659,123.269325 686.095947,126.096954 686.080261,127.612511 
	C685.940308,141.078171 685.999634,154.545898 685.999939,168.013016 
	C686.000183,180.138016 686.000000,192.263031 686.000000,204.993271 
	C691.578186,204.993271 697.345276,204.993271 703.584229,204.994278 
	C704.115479,205.167114 704.174744,205.338959 703.630615,205.879700 
	C702.738342,206.413208 702.449280,206.577789 702.160278,206.742371 
	C697.059265,206.894943 691.958191,207.047531 686.150146,206.779053 
	C684.702148,206.207016 683.961121,206.056030 683.220154,205.905060 
	C683.220154,177.551193 683.220154,149.197342 683.220154,120.211418 
	C688.975037,120.211418 694.730835,120.045769 700.457336,120.380646 
	C701.371338,120.434097 702.154053,122.732391 702.930786,124.470947 
z"/>
<path fill="#1E1F21" opacity="1.000000" stroke="none" 
	d="
M327.180725,187.426453 
	C326.234375,186.861771 324.202515,185.890259 324.169800,184.855560 
	C323.906708,176.531738 323.910889,168.193893 324.072296,159.864960 
	C324.137726,156.488312 325.548981,154.752975 329.691437,154.841522 
	C345.136047,155.171646 360.591949,154.973373 377.017334,154.973373 
	C377.017334,150.101624 377.017334,145.541306 377.022125,140.175934 
	C377.017456,138.917038 377.007965,138.463181 376.998474,138.009338 
	C377.524963,138.455399 378.501953,138.893738 378.509766,139.348709 
	C378.612305,145.315796 378.577942,151.285248 378.577942,157.717575 
	C361.150421,157.717575 344.260162,157.717575 327.021606,157.717575 
	C327.021606,167.786926 327.021606,177.388611 327.180725,187.426453 
z"/>
<path fill="#222223" opacity="1.000000" stroke="none" 
	d="
M401.553162,135.110962 
	C401.406769,137.167007 401.531860,139.714661 400.463623,141.578217 
	C396.082397,149.221283 396.241119,157.772659 396.323120,165.903946 
	C396.390503,172.588150 398.883331,179.344482 400.896576,185.885605 
	C402.943878,192.537399 407.298340,197.643265 413.329376,201.297562 
	C414.156433,201.798676 414.465790,203.154175 415.033997,204.473282 
	C402.093079,198.043350 396.385651,186.284286 394.557007,172.714279 
	C392.808350,159.737717 393.712769,146.802246 401.553162,135.110962 
z"/>
<path fill="#090A0D" opacity="1.000000" stroke="none" 
	d="
M611.584595,123.531082 
	C610.989685,125.575256 610.102600,127.160400 610.078003,128.758820 
	C609.937805,137.858902 610.003357,146.962128 609.999512,156.532135 
	C610.000000,157.000000 610.002441,156.998169 610.002441,156.998169 
	C609.668640,155.940567 609.046509,154.883759 609.043640,153.825241 
	C608.986450,132.934067 609.001038,112.042694 609.001038,89.905258 
	C609.903198,92.299339 610.374512,93.550011 611.157471,94.908974 
	C611.541138,97.708443 611.613220,100.399612 611.263672,103.645645 
	C611.050476,106.145462 611.259094,108.090408 611.467712,110.035355 
	C611.542053,114.382965 611.616394,118.730583 611.584595,123.531082 
z"/>
<path fill="#08090B" opacity="1.000000" stroke="none" 
	d="
M517.952209,174.526062 
	C517.256897,173.338455 516.077087,171.686890 516.075745,170.034363 
	C516.062927,154.411163 516.255249,138.787827 516.364929,123.164368 
	C516.369507,122.512077 516.142273,121.858154 516.003540,120.791489 
	C516.660400,121.692818 517.914673,123.002968 517.925354,124.323189 
	C518.059570,140.901825 518.014038,157.481918 517.952209,174.526062 
z"/>
<path fill="#060607" opacity="1.000000" stroke="none" 
	d="
M376.537354,137.919891 
	C377.007965,138.463181 377.017456,138.917038 377.025024,139.712433 
	C362.322845,140.039749 347.622498,140.041031 332.922302,139.991196 
	C331.132019,139.985123 329.342651,139.704224 327.568787,139.235504 
	C328.056091,138.615433 328.527435,138.310547 328.998779,138.005661 
	C344.691254,137.947250 360.383759,137.888840 376.537354,137.919891 
z"/>
<path fill="#060607" opacity="1.000000" stroke="none" 
	d="
M326.618256,137.895813 
	C325.748962,137.016449 324.145599,136.154129 324.124695,135.255035 
	C323.931732,126.950401 323.931671,118.637589 324.120300,110.332710 
	C324.142517,109.353905 325.637054,108.408539 326.701355,107.672897 
	C326.903809,117.455528 326.853973,127.012955 326.753265,137.143890 
	C326.702423,137.717422 326.618256,137.895813 326.618256,137.895813 
z"/>
<path fill="#0F1014" opacity="1.000000" stroke="none" 
	d="
M919.442993,196.317490 
	C920.020142,193.920929 920.565613,191.159317 921.859680,188.810013 
	C923.714539,185.442474 923.273132,184.112778 919.242249,183.953751 
	C913.250244,183.717331 907.415039,183.743561 902.092896,187.800827 
	C903.846313,182.845566 907.835083,182.106201 912.632324,182.470139 
	C916.875610,182.792068 921.162659,182.537598 927.206177,182.537598 
	C924.334106,187.772842 922.039917,191.954712 919.442993,196.317490 
z"/>
<path fill="#060607" opacity="1.000000" stroke="none" 
	d="
M384.179993,205.683807 
	C358.126770,206.009232 332.200134,206.009232 306.273529,206.009232 
	C306.270935,205.670731 306.268372,205.332214 306.265778,204.993713 
	C321.195801,204.993713 336.125854,204.993713 351.523499,204.988678 
	C353.064667,204.989258 354.138214,204.994873 356.080750,204.997284 
	C362.080811,204.995667 367.215729,205.120010 372.341522,204.956512 
	C375.879150,204.843689 379.404053,204.332779 382.934662,203.999756 
	C383.123627,203.993668 383.312561,203.987595 383.784943,203.986694 
	C384.147797,204.447372 384.227173,204.902878 384.179993,205.683807 
z"/>
<path fill="#08090B" opacity="1.000000" stroke="none" 
	d="
M668.392334,122.952354 
	C662.614685,122.702545 657.099854,122.413803 651.598206,121.963303 
	C649.560852,121.796478 647.554504,121.249687 645.316040,120.563316 
	C646.597351,119.832062 648.090149,119.082314 649.597046,119.052696 
	C656.083374,118.925209 662.573914,119.009132 669.508545,119.416718 
	C669.975098,120.225174 669.995972,120.632980 670.016907,121.040787 
	C669.564697,121.643608 669.112488,122.246429 668.392334,122.952354 
z"/>
<path fill="#060607" opacity="1.000000" stroke="none" 
	d="
M243.610428,224.851959 
	C242.855774,224.124924 242.067261,223.115067 242.058426,222.098419 
	C241.970505,211.961395 241.983292,201.823013 242.066757,191.685837 
	C242.073669,190.846191 242.804825,190.012543 243.596222,189.088486 
	C243.974777,200.855896 243.956604,212.710938 243.610428,224.851959 
z"/>
<path fill="#16171B" opacity="1.000000" stroke="none" 
	d="
M480.211945,206.029633 
	C479.354919,206.459351 478.508820,207.233597 477.639008,207.261154 
	C473.072601,207.405899 468.487671,207.552032 463.938538,207.251999 
	C462.772430,207.175079 461.712891,205.482178 461.072449,204.464630 
	C463.160614,204.916885 464.762573,205.804306 466.404297,205.885254 
	C470.998016,206.111771 475.608246,206.004913 480.211945,206.029633 
z"/>
<path fill="#090A0D" opacity="1.000000" stroke="none" 
	d="
M244.034958,94.538330 
	C243.271332,93.706871 242.127441,92.440681 242.077484,91.132706 
	C241.871002,85.728867 241.995895,80.312363 241.997375,74.429199 
	C242.734512,75.002579 244.074493,76.026436 244.111557,77.095451 
	C244.307571,82.752174 244.175842,88.420250 244.034958,94.538330 
z"/>
<path fill="#18191D" opacity="1.000000" stroke="none" 
	d="
M611.569763,205.872162 
	C611.158752,206.416962 610.739807,207.441574 610.337891,207.434952 
	C603.820312,207.327362 597.304932,207.088959 591.245300,206.441498 
	C598.324341,205.959290 604.947021,205.915726 611.569763,205.872162 
z"/>
<path fill="#08090B" opacity="1.000000" stroke="none" 
	d="
M380.435303,107.687790 
	C380.344910,102.032715 380.671967,96.466965 381.306030,90.446915 
	C382.022400,90.001358 382.431763,90.010101 382.841125,90.018845 
	C382.898804,94.983200 383.072784,99.951271 382.914856,104.908752 
	C382.883728,105.885788 381.573212,106.822052 380.435303,107.687790 
z"/>
<path fill="#222223" opacity="1.000000" stroke="none" 
	d="
M105.997864,213.340698 
	C110.286896,216.387177 114.634911,219.769470 118.995438,223.509064 
	C114.690918,220.469727 110.373886,217.073120 105.997864,213.340698 
z"/>
<path fill="#090A0D" opacity="1.000000" stroke="none" 
	d="
M704.253174,159.712738 
	C701.795227,155.182571 703.684692,151.080170 706.831970,147.104309 
	C706.269226,151.173218 705.330017,155.275345 704.253174,159.712738 
z"/>
<path fill="#090A0D" opacity="1.000000" stroke="none" 
	d="
M876.602539,118.904434 
	C873.897339,123.498672 868.662781,122.923943 864.028931,123.965240 
	C867.958557,122.068756 872.079712,120.464188 876.602539,118.904434 
z"/>
<path fill="#060607" opacity="1.000000" stroke="none" 
	d="
M480.399719,205.663605 
	C475.608246,206.004913 470.998016,206.111771 466.404297,205.885254 
	C464.762573,205.804306 463.160614,204.916885 461.211426,204.175629 
	C460.757233,203.202362 460.632141,202.451050 460.622314,201.331573 
	C464.438232,206.457642 470.092682,205.066040 475.295563,204.931854 
	C476.754425,204.894226 478.187897,203.870438 479.987610,203.084274 
	C480.424011,203.678894 480.505768,204.488251 480.399719,205.663605 
z"/>
<path fill="#08090B" opacity="1.000000" stroke="none" 
	d="
M611.673096,205.489746 
	C604.947021,205.915726 598.324341,205.959290 591.214233,206.019073 
	C590.624634,205.862030 590.522339,205.688751 590.537964,205.237640 
	C594.907593,204.975494 599.159790,204.957550 603.410889,205.018524 
	C606.334412,205.060425 609.370728,205.497711 611.226990,201.992935 
	C611.652161,203.008957 611.714294,204.058136 611.673096,205.489746 
z"/>
<path fill="#08090B" opacity="1.000000" stroke="none" 
	d="
M506.617645,120.305420 
	C505.774628,121.261581 504.627289,122.532677 503.242371,122.894424 
	C501.558014,123.334396 499.673615,123.008331 497.417847,123.008942 
	C497.772186,122.066620 498.469452,120.490952 499.419678,120.319847 
	C501.617340,119.924126 503.937531,120.208656 506.617645,120.305420 
z"/>
<path fill="#090A0D" opacity="1.000000" stroke="none" 
	d="
M890.901550,118.356422 
	C886.895447,118.954674 882.665955,119.181351 878.173401,119.068680 
	C882.166321,118.481171 886.422180,118.233009 890.901550,118.356422 
z"/>
<path fill="#17171B" opacity="1.000000" stroke="none" 
	d="
M903.845581,121.489655 
	C900.379150,124.266327 897.720398,122.092583 895.058472,119.319267 
	C897.860474,119.727669 900.720703,120.493553 903.845581,121.489655 
z"/>
<path fill="#1E1F21" opacity="1.000000" stroke="none" 
	d="
M327.653015,88.801796 
	C324.530518,89.126503 321.035522,89.327896 317.257782,89.231918 
	C320.410187,88.849197 323.845367,88.763840 327.653015,88.801796 
z"/>
<path fill="#08090B" opacity="1.000000" stroke="none" 
	d="
M496.849426,172.419952 
	C500.766296,174.560791 498.988464,177.755875 497.518433,181.047699 
	C496.988037,178.432587 496.873260,175.639740 496.849426,172.419952 
z"/>
<path fill="#18191D" opacity="1.000000" stroke="none" 
	d="
M611.594482,109.615059 
	C611.259094,108.090408 611.050476,106.145462 611.155518,104.081665 
	C611.553162,105.706795 611.637268,107.450783 611.594482,109.615059 
z"/>
<path fill="#1E1F21" opacity="1.000000" stroke="none" 
	d="
M338.703125,88.814667 
	C337.170013,89.122818 335.318390,89.309654 333.220673,89.215096 
	C334.777924,88.853584 336.581268,88.773460 338.703125,88.814667 
z"/>
<path fill="#08090B" opacity="1.000000" stroke="none" 
	d="
M331.408875,107.688904 
	C332.276611,107.400085 333.534027,107.201935 334.885071,107.302505 
	C333.918640,107.660667 332.858582,107.720123 331.408875,107.688904 
z"/>
<path fill="#222223" opacity="1.000000" stroke="none" 
	d="
M103.869987,209.427948 
	C104.584740,210.048752 105.325943,210.985245 105.761017,212.080338 
	C104.935410,211.407166 104.415924,210.575394 103.869987,209.427948 
z"/>
<path fill="#141519" opacity="1.000000" stroke="none" 
	d="
M683.156799,206.152710 
	C683.961121,206.056030 684.702148,206.207016 685.705566,206.634796 
	C685.009827,206.741180 684.051636,206.570755 683.156799,206.152710 
z"/>
<path fill="#090A0D" opacity="1.000000" stroke="none" 
	d="
M704.144653,201.614929 
	C703.866882,200.806229 703.685974,199.602158 703.777344,198.192444 
	C704.113464,199.064392 704.177490,200.141968 704.144653,201.614929 
z"/>
<path fill="#1E1F21" opacity="1.000000" stroke="none" 
	d="
M326.741638,138.141006 
	C326.618256,137.895813 326.702423,137.717422 326.773041,137.648560 
	C327.393677,137.645370 327.943695,137.711014 328.746246,137.891159 
	C328.527435,138.310547 328.056091,138.615433 327.290192,138.919891 
	C326.952087,138.741684 326.908569,138.563934 326.741638,138.141006 
z"/>
<path fill="#1E1F21" opacity="1.000000" stroke="none" 
	d="
M382.929199,89.769844 
	C382.431763,90.010101 382.022400,90.001358 381.306213,89.978561 
	C380.996124,89.788811 380.992889,89.613121 380.982117,89.173950 
	C381.655487,89.113937 382.336426,89.317390 382.929199,89.769844 
z"/>
<path fill="#18191D" opacity="1.000000" stroke="none" 
	d="
M670.339233,120.892365 
	C669.995972,120.632980 669.975098,120.225174 669.967407,119.511185 
	C670.207642,119.717979 670.434631,120.230965 670.339233,120.892365 
z"/>
<path fill="#060607" opacity="1.000000" stroke="none" 
	d="
M384.166901,188.688446 
	C383.830475,188.836380 383.535187,188.646072 383.117859,188.218918 
	C383.399902,188.104782 383.803986,188.227493 384.166901,188.688446 
z"/>
<path fill="#060607" opacity="1.000000" stroke="none" 
	d="
M480.461273,90.789551 
	C480.209351,90.769554 480.070007,90.449875 480.134949,90.012161 
	C480.417450,90.092712 480.495667,90.291290 480.461273,90.789551 
z"/>
<path fill="#141519" opacity="1.000000" stroke="none" 
	d="
M702.456238,206.978043 
	C702.449280,206.577789 702.738342,206.413208 703.510620,206.124496 
	C703.579956,206.404831 703.166077,206.809280 702.456238,206.978043 
z"/>
<path fill="#FBF9F5" opacity="1.000000" stroke="none" 
	d="
M448.422546,139.290009 
	C461.490112,147.526855 461.581940,170.948456 455.348877,180.646957 
	C450.787018,187.745056 444.299072,190.853958 435.942749,190.157135 
	C428.045563,189.498611 422.476501,185.023254 419.495972,178.188156 
	C415.229614,168.404373 415.187592,158.065994 419.565277,148.274826 
	C424.634888,136.936005 435.940826,133.565765 448.422546,139.290009 
z"/>
<path fill="#08090B" opacity="1.000000" stroke="none" 
	d="
M461.042297,115.987450 
	C461.042358,107.377831 461.042358,99.265465 461.042358,91.153107 
	C461.268036,91.153259 461.493713,91.153404 461.719391,91.153557 
	C461.719391,103.648445 461.719391,116.143333 461.719391,128.638229 
	C461.493652,128.651749 461.267944,128.665268 461.042206,128.678802 
	C461.042206,124.614105 461.042206,120.549408 461.042297,115.987450 
z"/>
<path fill="#1F2024" opacity="1.000000" stroke="none" 
	d="
M106.466187,187.990326 
	C105.997253,187.985870 105.997086,187.507248 106.465546,187.259354 
	C150.955017,187.006348 194.976013,187.001251 238.997009,186.996140 
	C238.997009,186.996140 239.000000,187.000000 239.002106,187.000305 
	C237.108154,187.333527 235.212448,187.954605 233.315964,187.957016 
	C191.189072,188.010788 149.062088,187.996307 106.466187,187.990326 
z"/>
<path fill="#1E1F21" opacity="1.000000" stroke="none" 
	d="
M382.472534,204.000824 
	C379.404053,204.332779 375.879150,204.843689 372.341522,204.956512 
	C367.215729,205.120010 362.080811,204.995667 356.483093,204.990143 
	C359.884918,204.658463 363.748138,204.175919 367.623352,204.042419 
	C372.413849,203.877411 377.214294,204.002289 382.472534,204.000824 
z"/>
<path fill="#090A0D" opacity="1.000000" stroke="none" 
	d="
M609.998779,157.000916 
	C610.847961,157.172958 611.698425,157.344086 612.548828,157.515213 
	C612.420959,157.869446 612.293152,158.223679 612.165283,158.577911 
	C611.476624,158.271774 610.788025,157.965637 610.050903,157.328827 
	C610.002441,156.998169 610.000000,157.000000 609.998779,157.000916 
z"/>
<path fill="#F7F5F2" opacity="1.000000" stroke="none" 
	d="
M867.014832,154.250610 
	C866.684448,153.022858 865.811279,151.639984 866.110718,150.592224 
	C868.242676,143.132355 872.337280,137.142899 880.438354,135.599014 
	C888.217102,134.116577 895.594116,135.190125 901.260681,141.598114 
	C901.916748,142.340057 902.559692,143.093643 903.587280,144.320465 
	C904.857361,147.255661 905.748901,149.712219 906.640381,152.168793 
	C906.547791,152.698212 906.455200,153.227646 905.710449,153.907074 
	C892.377136,154.121582 879.695984,154.186096 867.014832,154.250610 
z"/>
<path fill="#08090B" opacity="1.000000" stroke="none" 
	d="
M867.037964,154.649979 
	C879.695984,154.186096 892.377136,154.121582 905.523499,154.111115 
	C904.828186,155.108749 903.683411,156.848312 902.504639,156.871689 
	C891.799377,157.083893 881.087524,157.053711 870.380005,156.911591 
	C869.265625,156.896820 868.166992,155.698532 867.037964,154.649979 
z"/>
<path fill="#08090B" opacity="1.000000" stroke="none" 
	d="
M906.959534,151.959122 
	C905.748901,149.712219 904.857361,147.255661 903.905518,144.425323 
	C907.453674,145.518509 908.426331,148.161118 906.959534,151.959122 
z"/>
<path fill="#17171B" opacity="1.000000" stroke="none" 
	d="
M238.701447,186.701859 
	C194.976013,187.001251 150.955017,187.006348 106.464935,187.020050 
	C105.833267,186.994919 105.617416,187.014130 105.519768,186.915863 
	C105.345207,186.740189 105.241898,186.493713 105.108795,186.276855 
	C105.890930,186.186890 106.673050,186.018417 107.455208,186.018188 
	C150.296570,186.005753 193.137939,186.005264 235.979309,186.024384 
	C236.788208,186.024734 237.597015,186.274292 238.701447,186.701859 
z"/>
</svg>